<mxfile host="app.diagrams.net" modified="2023-04-08T17:42:37.072Z" agent="Mozilla/5.0 (Windows NT 10.0; Win64; x64) AppleWebKit/537.36 (KHTML, like Gecko) Chrome/112.0.0.0 Safari/537.36" etag="dIXFIzgupOUBj8wRpc2s" version="21.1.5" type="device">
  <diagram name="Page-1" id="HC1Dvr4MoXkE7cg1zH2Z">
    <mxGraphModel dx="1354" dy="695" grid="0" gridSize="10" guides="1" tooltips="1" connect="1" arrows="1" fold="1" page="1" pageScale="1" pageWidth="850" pageHeight="1100" math="0" shadow="0">
      <root>
        <mxCell id="0" />
        <mxCell id="1" parent="0" />
        <mxCell id="DylXzz9PM_oRIj7KpY9D-1" value="Admin" style="shape=umlLifeline;participant=umlActor;perimeter=lifelinePerimeter;whiteSpace=wrap;html=1;container=1;collapsible=0;recursiveResize=0;verticalAlign=top;spacingTop=36;labelBackgroundColor=#ffffff;outlineConnect=0;" parent="1" vertex="1">
          <mxGeometry x="70" y="60" width="20" height="550" as="geometry" />
        </mxCell>
        <mxCell id="DylXzz9PM_oRIj7KpY9D-2" value="" style="endArrow=block;endFill=1;endSize=6;html=1;" parent="DylXzz9PM_oRIj7KpY9D-1" target="DylXzz9PM_oRIj7KpY9D-3" edge="1">
          <mxGeometry width="100" relative="1" as="geometry">
            <mxPoint x="10" y="100" as="sourcePoint" />
            <mxPoint x="110" y="100" as="targetPoint" />
          </mxGeometry>
        </mxCell>
        <mxCell id="DylXzz9PM_oRIj7KpY9D-3" value="Login Page&lt;br&gt;" style="shape=umlLifeline;perimeter=lifelinePerimeter;whiteSpace=wrap;html=1;container=1;collapsible=0;recursiveResize=0;outlineConnect=0;" parent="1" vertex="1">
          <mxGeometry x="330" y="60" width="100" height="540" as="geometry" />
        </mxCell>
        <mxCell id="DylXzz9PM_oRIj7KpY9D-4" value="" style="html=1;points=[];perimeter=orthogonalPerimeter;" parent="DylXzz9PM_oRIj7KpY9D-3" vertex="1">
          <mxGeometry x="45" y="60" width="10" height="250" as="geometry" />
        </mxCell>
        <mxCell id="DylXzz9PM_oRIj7KpY9D-5" value="View Admin Page" style="shape=umlLifeline;perimeter=lifelinePerimeter;whiteSpace=wrap;html=1;container=1;collapsible=0;recursiveResize=0;outlineConnect=0;" parent="1" vertex="1">
          <mxGeometry x="600" y="60" width="100" height="520" as="geometry" />
        </mxCell>
        <mxCell id="DylXzz9PM_oRIj7KpY9D-6" value="" style="html=1;points=[];perimeter=orthogonalPerimeter;" parent="DylXzz9PM_oRIj7KpY9D-5" vertex="1">
          <mxGeometry x="45" y="180" width="10" height="260" as="geometry" />
        </mxCell>
        <mxCell id="DylXzz9PM_oRIj7KpY9D-7" value="Enter Email&lt;br&gt;" style="text;html=1;align=center;verticalAlign=middle;resizable=0;points=[];autosize=1;" parent="1" vertex="1">
          <mxGeometry x="190" y="140" width="80" height="20" as="geometry" />
        </mxCell>
        <mxCell id="DylXzz9PM_oRIj7KpY9D-8" value="" style="endArrow=block;endFill=1;endSize=6;html=1;" parent="1" edge="1">
          <mxGeometry width="100" relative="1" as="geometry">
            <mxPoint x="80.25" y="200" as="sourcePoint" />
            <mxPoint x="379.75" y="200" as="targetPoint" />
          </mxGeometry>
        </mxCell>
        <mxCell id="DylXzz9PM_oRIj7KpY9D-9" value="Enter password&lt;br&gt;&lt;br&gt;" style="text;html=1;align=center;verticalAlign=middle;resizable=0;points=[];autosize=1;" parent="1" vertex="1">
          <mxGeometry x="188" y="179" width="100" height="30" as="geometry" />
        </mxCell>
        <mxCell id="DylXzz9PM_oRIj7KpY9D-10" value="" style="endArrow=block;endFill=1;endSize=6;html=1;" parent="1" edge="1">
          <mxGeometry width="100" relative="1" as="geometry">
            <mxPoint x="80.25" y="240" as="sourcePoint" />
            <mxPoint x="379.75" y="240" as="targetPoint" />
          </mxGeometry>
        </mxCell>
        <mxCell id="DylXzz9PM_oRIj7KpY9D-11" value="Press Login Button&lt;br&gt;" style="text;html=1;align=center;verticalAlign=middle;resizable=0;points=[];autosize=1;" parent="1" vertex="1">
          <mxGeometry x="178" y="220" width="120" height="20" as="geometry" />
        </mxCell>
        <mxCell id="DylXzz9PM_oRIj7KpY9D-12" value="alt" style="shape=umlFrame;whiteSpace=wrap;html=1;" parent="1" vertex="1">
          <mxGeometry x="70" y="320" width="775" height="310" as="geometry" />
        </mxCell>
        <mxCell id="DylXzz9PM_oRIj7KpY9D-13" value="correct email and password" style="text;html=1;align=center;verticalAlign=middle;resizable=0;points=[];autosize=1;" parent="1" vertex="1">
          <mxGeometry x="80" y="350" width="160" height="20" as="geometry" />
        </mxCell>
        <mxCell id="DylXzz9PM_oRIj7KpY9D-14" value="" style="endArrow=block;endFill=1;endSize=6;html=1;" parent="1" edge="1">
          <mxGeometry width="100" relative="1" as="geometry">
            <mxPoint x="385" y="350" as="sourcePoint" />
            <mxPoint x="650" y="350" as="targetPoint" />
          </mxGeometry>
        </mxCell>
        <mxCell id="DylXzz9PM_oRIj7KpY9D-15" value="send admin&#39;s data" style="text;html=1;align=center;verticalAlign=middle;resizable=0;points=[];autosize=1;" parent="1" vertex="1">
          <mxGeometry x="455" y="320" width="120" height="30" as="geometry" />
        </mxCell>
        <mxCell id="DylXzz9PM_oRIj7KpY9D-16" value="" style="endArrow=block;endFill=1;endSize=6;html=1;dashed=1;" parent="1" edge="1">
          <mxGeometry width="100" relative="1" as="geometry">
            <mxPoint x="645" y="480" as="sourcePoint" />
            <mxPoint x="80" y="480" as="targetPoint" />
            <Array as="points">
              <mxPoint x="355" y="480" />
            </Array>
          </mxGeometry>
        </mxCell>
        <mxCell id="DylXzz9PM_oRIj7KpY9D-17" value="return view Admin page" style="text;html=1;align=center;verticalAlign=middle;resizable=0;points=[];autosize=1;" parent="1" vertex="1">
          <mxGeometry x="225" y="455" width="150" height="30" as="geometry" />
        </mxCell>
        <mxCell id="DylXzz9PM_oRIj7KpY9D-18" value="" style="endArrow=none;html=1;exitX=0;exitY=0.661;exitDx=0;exitDy=0;exitPerimeter=0;entryX=1;entryY=0.661;entryDx=0;entryDy=0;entryPerimeter=0;" parent="1" source="DylXzz9PM_oRIj7KpY9D-12" target="DylXzz9PM_oRIj7KpY9D-12" edge="1">
          <mxGeometry width="50" height="50" relative="1" as="geometry">
            <mxPoint x="160" y="590" as="sourcePoint" />
            <mxPoint x="700" y="525" as="targetPoint" />
          </mxGeometry>
        </mxCell>
        <mxCell id="DylXzz9PM_oRIj7KpY9D-19" value="incorrect email and password" style="text;html=1;align=center;verticalAlign=middle;resizable=0;points=[];autosize=1;" parent="1" vertex="1">
          <mxGeometry x="80" y="530" width="170" height="20" as="geometry" />
        </mxCell>
        <mxCell id="DylXzz9PM_oRIj7KpY9D-20" value="" style="html=1;points=[];perimeter=orthogonalPerimeter;" parent="1" vertex="1">
          <mxGeometry x="375" y="540" width="10" height="80" as="geometry" />
        </mxCell>
        <mxCell id="DylXzz9PM_oRIj7KpY9D-21" value="" style="endArrow=block;endFill=1;endSize=6;html=1;dashed=1;exitX=0.2;exitY=0.488;exitDx=0;exitDy=0;exitPerimeter=0;" parent="1" source="DylXzz9PM_oRIj7KpY9D-20" edge="1">
          <mxGeometry width="100" relative="1" as="geometry">
            <mxPoint x="650" y="579.5" as="sourcePoint" />
            <mxPoint x="80" y="579.5" as="targetPoint" />
            <Array as="points">
              <mxPoint x="360" y="579.5" />
            </Array>
          </mxGeometry>
        </mxCell>
        <mxCell id="DylXzz9PM_oRIj7KpY9D-22" value="show an alert message: invalid data" style="text;html=1;align=center;verticalAlign=middle;resizable=0;points=[];autosize=1;" parent="1" vertex="1">
          <mxGeometry x="133" y="555" width="210" height="30" as="geometry" />
        </mxCell>
        <mxCell id="DylXzz9PM_oRIj7KpY9D-23" value="" style="endArrow=none;html=1;" parent="1" source="DylXzz9PM_oRIj7KpY9D-4" edge="1">
          <mxGeometry width="50" height="50" relative="1" as="geometry">
            <mxPoint x="400" y="259" as="sourcePoint" />
            <mxPoint x="470" y="259" as="targetPoint" />
          </mxGeometry>
        </mxCell>
        <mxCell id="DylXzz9PM_oRIj7KpY9D-24" value="" style="endArrow=classic;html=1;" parent="1" target="DylXzz9PM_oRIj7KpY9D-3" edge="1">
          <mxGeometry width="50" height="50" relative="1" as="geometry">
            <mxPoint x="470" y="290" as="sourcePoint" />
            <mxPoint x="450" y="250" as="targetPoint" />
          </mxGeometry>
        </mxCell>
        <mxCell id="DylXzz9PM_oRIj7KpY9D-25" value="Verify credentials&amp;nbsp;" style="text;html=1;align=center;verticalAlign=middle;resizable=0;points=[];autosize=1;" parent="1" vertex="1">
          <mxGeometry x="470" y="260" width="110" height="20" as="geometry" />
        </mxCell>
        <mxCell id="DylXzz9PM_oRIj7KpY9D-26" value="" style="endArrow=none;html=1;" parent="1" edge="1">
          <mxGeometry width="50" height="50" relative="1" as="geometry">
            <mxPoint x="470" y="290" as="sourcePoint" />
            <mxPoint x="470" y="260" as="targetPoint" />
          </mxGeometry>
        </mxCell>
        <mxCell id="DylXzz9PM_oRIj7KpY9D-27" value="" style="endArrow=none;html=1;" parent="1" edge="1">
          <mxGeometry width="50" height="50" relative="1" as="geometry">
            <mxPoint x="650" y="370" as="sourcePoint" />
            <mxPoint x="710" y="370" as="targetPoint" />
          </mxGeometry>
        </mxCell>
        <mxCell id="DylXzz9PM_oRIj7KpY9D-29" value="" style="endArrow=none;html=1;" parent="1" edge="1">
          <mxGeometry width="50" height="50" relative="1" as="geometry">
            <mxPoint x="710" y="400" as="sourcePoint" />
            <mxPoint x="710" y="370" as="targetPoint" />
          </mxGeometry>
        </mxCell>
        <mxCell id="DylXzz9PM_oRIj7KpY9D-31" value="" style="endArrow=classic;html=1;" parent="1" edge="1">
          <mxGeometry width="50" height="50" relative="1" as="geometry">
            <mxPoint x="710" y="400" as="sourcePoint" />
            <mxPoint x="650" y="400" as="targetPoint" />
          </mxGeometry>
        </mxCell>
        <mxCell id="DylXzz9PM_oRIj7KpY9D-33" value="return data of all clients" style="text;html=1;align=center;verticalAlign=middle;resizable=0;points=[];autosize=1;" parent="1" vertex="1">
          <mxGeometry x="700" y="370" width="150" height="30" as="geometry" />
        </mxCell>
      </root>
    </mxGraphModel>
  </diagram>
</mxfile>
